<?xml version="1.0" encoding="UTF-8" standalone="no"?>
<!DOCTYPE svg PUBLIC "-//W3C//DTD SVG 1.1//EN"
 "http://www.w3.org/Graphics/SVG/1.1/DTD/svg11.dtd">
<!-- Generated by graphviz version 15.1.0 (20260618.0150)
 -->
<!-- Title: architecture Pages: 1 -->
<svg width="1011pt" height="287pt"
 viewBox="0.00 0.00 1011.00 287.00" xmlns="http://www.w3.org/2000/svg" xmlns:xlink="http://www.w3.org/1999/xlink">
<g id="graph0" class="graph" transform="scale(1 1) rotate(0) translate(4 282.87)">
<title>architecture</title>
<polygon fill="white" stroke="none" points="-4,4 -4,-282.87 1006.74,-282.87 1006.74,4 -4,4"/>
<g id="clust1" class="cluster">
<title>cluster_api</title>
<path fill="white" stroke="#90a4ae" d="M381.99,-63.87C381.99,-63.87 830.49,-63.87 830.49,-63.87 836.49,-63.87 842.49,-69.87 842.49,-75.87 842.49,-75.87 842.49,-258.87 842.49,-258.87 842.49,-264.87 836.49,-270.87 830.49,-270.87 830.49,-270.87 381.99,-270.87 381.99,-270.87 375.99,-270.87 369.99,-264.87 369.99,-258.87 369.99,-258.87 369.99,-75.87 369.99,-75.87 369.99,-69.87 375.99,-63.87 381.99,-63.87"/>
<text xml:space="preserve" text-anchor="middle" x="606.24" y="-253.57" font-family="Helvetica,sans-Serif" font-size="14.00">FastAPI process (:8000)</text>
</g>
<!-- user -->
<g id="node1" class="node">
<title>user</title>
<ellipse fill="#e8eaf6" stroke="black" cx="51.62" cy="-164.87" rx="51.62" ry="26.87"/>
<text xml:space="preserve" text-anchor="middle" x="51.62" y="-166.57" font-family="Helvetica,sans-Serif" font-size="14.00">User</text>
<text xml:space="preserve" text-anchor="middle" x="51.62" y="-151.57" font-family="Helvetica,sans-Serif" font-size="14.00">(browser)</text>
</g>
<!-- gradio -->
<g id="node2" class="node">
<title>gradio</title>
<path fill="#fff3e0" stroke="black" d="M242.99,-183.87C242.99,-183.87 172.24,-183.87 172.24,-183.87 166.24,-183.87 160.24,-177.87 160.24,-171.87 160.24,-171.87 160.24,-157.87 160.24,-157.87 160.24,-151.87 166.24,-145.87 172.24,-145.87 172.24,-145.87 242.99,-145.87 242.99,-145.87 248.99,-145.87 254.99,-151.87 254.99,-157.87 254.99,-157.87 254.99,-171.87 254.99,-171.87 254.99,-177.87 248.99,-183.87 242.99,-183.87"/>
<text xml:space="preserve" text-anchor="middle" x="207.61" y="-166.57" font-family="Helvetica,sans-Serif" font-size="14.00">Gradio UI</text>
<text xml:space="preserve" text-anchor="middle" x="207.61" y="-151.57" font-family="Helvetica,sans-Serif" font-size="14.00">ui.py &#160;(:7860)</text>
</g>
<!-- user&#45;&gt;gradio -->
<g id="edge1" class="edge">
<title>user&#45;&gt;gradio</title>
<path fill="none" stroke="black" d="M103.47,-164.87C117.99,-164.87 133.92,-164.87 148.82,-164.87"/>
<polygon fill="black" stroke="black" points="148.46,-168.37 158.46,-164.87 148.46,-161.37 148.46,-168.37"/>
<text xml:space="preserve" text-anchor="middle" x="131.74" y="-166.62" font-family="Helvetica,sans-Serif" font-size="10.00">uses</text>
</g>
<!-- routes -->
<g id="node5" class="node">
<title>routes</title>
<path fill="#e3f2fd" stroke="black" d="M524.49,-183.87C524.49,-183.87 389.99,-183.87 389.99,-183.87 383.99,-183.87 377.99,-177.87 377.99,-171.87 377.99,-171.87 377.99,-157.87 377.99,-157.87 377.99,-151.87 383.99,-145.87 389.99,-145.87 389.99,-145.87 524.49,-145.87 524.49,-145.87 530.49,-145.87 536.49,-151.87 536.49,-157.87 536.49,-157.87 536.49,-171.87 536.49,-171.87 536.49,-177.87 530.49,-183.87 524.49,-183.87"/>
<text xml:space="preserve" text-anchor="middle" x="457.24" y="-166.57" font-family="Helvetica,sans-Serif" font-size="14.00">app/main.py</text>
<text xml:space="preserve" text-anchor="middle" x="457.24" y="-151.57" font-family="Helvetica,sans-Serif" font-size="14.00">routes + Swagger /docs</text>
</g>
<!-- gradio&#45;&gt;routes -->
<g id="edge2" class="edge">
<title>gradio&#45;&gt;routes</title>
<path fill="none" stroke="black" d="M255.48,-164.87C286.74,-164.87 328.84,-164.87 366.41,-164.87"/>
<polygon fill="black" stroke="black" points="366.4,-168.37 376.4,-164.87 366.4,-161.37 366.4,-168.37"/>
<text xml:space="preserve" text-anchor="middle" x="316.49" y="-166.62" font-family="Helvetica,sans-Serif" font-size="10.00">httpx · HTTP /tasks</text>
</g>
<!-- db -->
<g id="node3" class="node">
<title>db</title>
<path fill="#e0f2f1" stroke="black" d="M1002.74,-65.25C1002.74,-67.87 987.89,-70 969.61,-70 951.33,-70 936.49,-67.87 936.49,-65.25 936.49,-65.25 936.49,-22.5 936.49,-22.5 936.49,-19.87 951.33,-17.75 969.61,-17.75 987.89,-17.75 1002.74,-19.87 1002.74,-22.5 1002.74,-22.5 1002.74,-65.25 1002.74,-65.25"/>
<path fill="none" stroke="black" d="M1002.74,-65.25C1002.74,-62.62 987.89,-60.5 969.61,-60.5 951.33,-60.5 936.49,-62.62 936.49,-65.25"/>
<text xml:space="preserve" text-anchor="middle" x="969.61" y="-45.57" font-family="Helvetica,sans-Serif" font-size="14.00">SQLite</text>
<text xml:space="preserve" text-anchor="middle" x="969.61" y="-30.57" font-family="Helvetica,sans-Serif" font-size="14.00">tasks.db</text>
</g>
<!-- dbeaver -->
<g id="node4" class="node">
<title>dbeaver</title>
<ellipse fill="#f3e5f5" stroke="black" cx="742.86" cy="-26.87" rx="78.67" ry="26.87"/>
<text xml:space="preserve" text-anchor="middle" x="742.86" y="-28.57" font-family="Helvetica,sans-Serif" font-size="14.00">DBeaver</text>
<text xml:space="preserve" text-anchor="middle" x="742.86" y="-13.57" font-family="Helvetica,sans-Serif" font-size="14.00">(inspect / verify)</text>
</g>
<!-- dbeaver&#45;&gt;db -->
<g id="edge7" class="edge">
<title>dbeaver&#45;&gt;db</title>
<path fill="none" stroke="black" stroke-dasharray="5,2" d="M831.25,-33.48C868.11,-36.27 908.74,-39.34 936.18,-41.42"/>
<polygon fill="black" stroke="black" points="831.7,-30 821.46,-32.74 831.17,-36.98 831.7,-30"/>
<text xml:space="preserve" text-anchor="middle" x="885.49" y="-41.51" font-family="Helvetica,sans-Serif" font-size="10.00">SELECT</text>
</g>
<!-- schemas -->
<g id="node6" class="node">
<title>schemas</title>
<path fill="#e3f2fd" stroke="black" d="M822.49,-127.87C822.49,-127.87 663.24,-127.87 663.24,-127.87 657.24,-127.87 651.24,-121.87 651.24,-115.87 651.24,-115.87 651.24,-83.87 651.24,-83.87 651.24,-77.87 657.24,-71.87 663.24,-71.87 663.24,-71.87 822.49,-71.87 822.49,-71.87 828.49,-71.87 834.49,-77.87 834.49,-83.87 834.49,-83.87 834.49,-115.87 834.49,-115.87 834.49,-121.87 828.49,-127.87 822.49,-127.87"/>
<text xml:space="preserve" text-anchor="middle" x="742.86" y="-110.57" font-family="Helvetica,sans-Serif" font-size="14.00">app/schemas.py</text>
<text xml:space="preserve" text-anchor="middle" x="742.86" y="-95.57" font-family="Helvetica,sans-Serif" font-size="14.00">Create / Update / Response</text>
<text xml:space="preserve" text-anchor="middle" x="742.86" y="-80.57" font-family="Helvetica,sans-Serif" font-size="14.00">(validation → 422)</text>
</g>
<!-- routes&#45;&gt;schemas -->
<g id="edge3" class="edge">
<title>routes&#45;&gt;schemas</title>
<path fill="none" stroke="black" d="M536.87,-146.85C568.75,-139.54 605.98,-131.01 639.9,-123.24"/>
<polygon fill="black" stroke="black" points="640.35,-126.73 649.31,-121.08 638.78,-119.9 640.35,-126.73"/>
<text xml:space="preserve" text-anchor="middle" x="593.86" y="-143.74" font-family="Helvetica,sans-Serif" font-size="10.00">validate in/out</text>
</g>
<!-- database -->
<g id="node7" class="node">
<title>database</title>
<path fill="#e3f2fd" stroke="black" d="M816.11,-183.87C816.11,-183.87 669.61,-183.87 669.61,-183.87 663.61,-183.87 657.61,-177.87 657.61,-171.87 657.61,-171.87 657.61,-157.87 657.61,-157.87 657.61,-151.87 663.61,-145.87 669.61,-145.87 669.61,-145.87 816.11,-145.87 816.11,-145.87 822.11,-145.87 828.11,-151.87 828.11,-157.87 828.11,-157.87 828.11,-171.87 828.11,-171.87 828.11,-177.87 822.11,-183.87 816.11,-183.87"/>
<text xml:space="preserve" text-anchor="middle" x="742.86" y="-166.57" font-family="Helvetica,sans-Serif" font-size="14.00">app/database.py</text>
<text xml:space="preserve" text-anchor="middle" x="742.86" y="-151.57" font-family="Helvetica,sans-Serif" font-size="14.00">engine + get_session (DI)</text>
</g>
<!-- routes&#45;&gt;database -->
<g id="edge4" class="edge">
<title>routes&#45;&gt;database</title>
<path fill="none" stroke="black" d="M536.87,-164.87C570.59,-164.87 610.32,-164.87 645.77,-164.87"/>
<polygon fill="black" stroke="black" points="645.6,-168.37 655.6,-164.87 645.6,-161.37 645.6,-168.37"/>
<text xml:space="preserve" text-anchor="middle" x="593.86" y="-166.62" font-family="Helvetica,sans-Serif" font-size="10.00">Depends(session)</text>
</g>
<!-- models -->
<g id="node8" class="node">
<title>models</title>
<path fill="#e3f2fd" stroke="black" d="M799.61,-239.87C799.61,-239.87 686.11,-239.87 686.11,-239.87 680.11,-239.87 674.11,-233.87 674.11,-227.87 674.11,-227.87 674.11,-213.87 674.11,-213.87 674.11,-207.87 680.11,-201.87 686.11,-201.87 686.11,-201.87 799.61,-201.87 799.61,-201.87 805.61,-201.87 811.61,-207.87 811.61,-213.87 811.61,-213.87 811.61,-227.87 811.61,-227.87 811.61,-233.87 805.61,-239.87 799.61,-239.87"/>
<text xml:space="preserve" text-anchor="middle" x="742.86" y="-222.57" font-family="Helvetica,sans-Serif" font-size="14.00">app/models.py</text>
<text xml:space="preserve" text-anchor="middle" x="742.86" y="-207.57" font-family="Helvetica,sans-Serif" font-size="14.00">Task ORM + enums</text>
</g>
<!-- routes&#45;&gt;models -->
<g id="edge5" class="edge">
<title>routes&#45;&gt;models</title>
<path fill="none" stroke="black" d="M536.87,-180.39C576.04,-188.13 623.31,-197.46 662.57,-205.22"/>
<polygon fill="black" stroke="black" points="661.72,-208.61 672.2,-207.12 663.07,-201.75 661.72,-208.61"/>
<text xml:space="preserve" text-anchor="middle" x="593.86" y="-199.64" font-family="Helvetica,sans-Serif" font-size="10.00">build / query Task</text>
</g>
<!-- database&#45;&gt;db -->
<g id="edge6" class="edge">
<title>database&#45;&gt;db</title>
<path fill="none" stroke="black" d="M822.36,-145.4C829.29,-142.84 836.1,-140.01 842.49,-136.87 875.19,-120.83 908.19,-96.13 932.22,-76.21"/>
<polygon fill="black" stroke="black" points="934.43,-78.93 939.82,-69.82 929.92,-73.58 934.43,-78.93"/>
<text xml:space="preserve" text-anchor="middle" x="885.49" y="-132.78" font-family="Helvetica,sans-Serif" font-size="10.00">SQL via engine</text>
</g>
</g>
</svg>
