<?xml version="1.0" encoding="UTF-8" standalone="no"?>
<!DOCTYPE svg PUBLIC "-//W3C//DTD SVG 1.1//EN"
 "http://www.w3.org/Graphics/SVG/1.1/DTD/svg11.dtd">
<!-- Generated by graphviz version 15.1.0 (20260618.0150)
 -->
<!-- Title: learning&#45;flow Pages: 1 -->
<svg width="274pt" height="1109pt"
 viewBox="0.00 0.00 274.00 1109.00" xmlns="http://www.w3.org/2000/svg" xmlns:xlink="http://www.w3.org/1999/xlink">
<g id="graph0" class="graph" transform="scale(1 1) rotate(0) translate(4 1105)">
<title>learning&#45;flow</title>
<polygon fill="white" stroke="none" points="-4,4 -4,-1105 270,-1105 270,4 -4,4"/>
<g id="clust1" class="cluster">
<title>cluster_a</title>
<path fill="white" stroke="#66bb6a" d="M25,-540C25,-540 246,-540 246,-540 252,-540 258,-546 258,-552 258,-552 258,-1043 258,-1043 258,-1049 252,-1055 246,-1055 246,-1055 25,-1055 25,-1055 19,-1055 13,-1049 13,-1043 13,-1043 13,-552 13,-552 13,-546 19,-540 25,-540"/>
<text xml:space="preserve" text-anchor="middle" x="135.5" y="-1037.7" font-family="Helvetica,sans-Serif" font-size="14.00">Phase A — pure FastAPI (in&#45;memory)</text>
</g>
<g id="clust2" class="cluster">
<title>cluster_b</title>
<path fill="white" stroke="#42a5f5" d="M43,-235C43,-235 191,-235 191,-235 197,-235 203,-241 203,-247 203,-247 203,-520 203,-520 203,-526 197,-532 191,-532 191,-532 43,-532 43,-532 37,-532 31,-526 31,-520 31,-520 31,-247 31,-247 31,-241 37,-235 43,-235"/>
<text xml:space="preserve" text-anchor="middle" x="117" y="-514.7" font-family="Helvetica,sans-Serif" font-size="14.00">Phase B — the database</text>
</g>
<g id="clust3" class="cluster">
<title>cluster_c</title>
<path fill="white" stroke="#ab47bc" d="M20,-8C20,-8 214,-8 214,-8 220,-8 226,-14 226,-20 226,-20 226,-215 226,-215 226,-221 220,-227 214,-227 214,-227 20,-227 20,-227 14,-227 8,-221 8,-215 8,-215 8,-20 8,-20 8,-14 14,-8 20,-8"/>
<text xml:space="preserve" text-anchor="middle" x="117" y="-209.7" font-family="Helvetica,sans-Serif" font-size="14.00">Phase C — productionize</text>
</g>
<!-- start -->
<g id="node1" class="node">
<title>start</title>
<path fill="#eceff1" stroke="black" d="M182,-1101C182,-1101 52,-1101 52,-1101 46,-1101 40,-1095 40,-1089 40,-1089 40,-1075 40,-1075 40,-1069 46,-1063 52,-1063 52,-1063 182,-1063 182,-1063 188,-1063 194,-1069 194,-1075 194,-1075 194,-1089 194,-1089 194,-1095 188,-1101 182,-1101"/>
<text xml:space="preserve" text-anchor="middle" x="117" y="-1083.7" font-family="Helvetica,sans-Serif" font-size="14.00">Environment setup</text>
<text xml:space="preserve" text-anchor="middle" x="117" y="-1068.7" font-family="Helvetica,sans-Serif" font-size="14.00">Python 3.13 venv + pip</text>
</g>
<!-- a1 -->
<g id="node2" class="node">
<title>a1</title>
<path fill="#e8f5e9" stroke="black" d="M161.38,-1024C161.38,-1024 72.62,-1024 72.62,-1024 66.62,-1024 60.62,-1018 60.62,-1012 60.62,-1012 60.62,-998 60.62,-998 60.62,-992 66.62,-986 72.62,-986 72.62,-986 161.38,-986 161.38,-986 167.38,-986 173.38,-992 173.38,-998 173.38,-998 173.38,-1012 173.38,-1012 173.38,-1018 167.38,-1024 161.38,-1024"/>
<text xml:space="preserve" text-anchor="middle" x="117" y="-1006.7" font-family="Helvetica,sans-Serif" font-size="14.00">App + routing</text>
<text xml:space="preserve" text-anchor="middle" x="117" y="-991.7" font-family="Helvetica,sans-Serif" font-size="14.00">(uvicorn / ASGI)</text>
</g>
<!-- start&#45;&gt;a1 -->
<g id="edge1" class="edge">
<title>start&#45;&gt;a1</title>
<path fill="none" stroke="black" d="M117,-1062.84C117,-1054.71 117,-1044.89 117,-1035.73"/>
<polygon fill="black" stroke="black" points="120.5,-1035.76 117,-1025.76 113.5,-1035.76 120.5,-1035.76"/>
</g>
<!-- a2 -->
<g id="node3" class="node">
<title>a2</title>
<path fill="#e8f5e9" stroke="black" d="M197,-950C197,-950 37,-950 37,-950 31,-950 25,-944 25,-938 25,-938 25,-924 25,-924 25,-918 31,-912 37,-912 37,-912 197,-912 197,-912 203,-912 209,-918 209,-924 209,-924 209,-938 209,-938 209,-944 203,-950 197,-950"/>
<text xml:space="preserve" text-anchor="middle" x="117" y="-932.7" font-family="Helvetica,sans-Serif" font-size="14.00">Request/response schemas</text>
<text xml:space="preserve" text-anchor="middle" x="117" y="-917.7" font-family="Helvetica,sans-Serif" font-size="14.00">(3 separate models)</text>
</g>
<!-- a1&#45;&gt;a2 -->
<g id="edge2" class="edge">
<title>a1&#45;&gt;a2</title>
<path fill="none" stroke="black" d="M117,-985.83C117,-978.55 117,-969.98 117,-961.83"/>
<polygon fill="black" stroke="black" points="120.5,-961.93 117,-951.93 113.5,-961.93 120.5,-961.93"/>
</g>
<!-- a3 -->
<g id="node4" class="node">
<title>a3</title>
<path fill="#e8f5e9" stroke="black" d="M163.25,-876C163.25,-876 70.75,-876 70.75,-876 64.75,-876 58.75,-870 58.75,-864 58.75,-864 58.75,-850 58.75,-850 58.75,-844 64.75,-838 70.75,-838 70.75,-838 163.25,-838 163.25,-838 169.25,-838 175.25,-844 175.25,-850 175.25,-850 175.25,-864 175.25,-864 175.25,-870 169.25,-876 163.25,-876"/>
<text xml:space="preserve" text-anchor="middle" x="117" y="-858.7" font-family="Helvetica,sans-Serif" font-size="14.00">Path parameters</text>
<text xml:space="preserve" text-anchor="middle" x="117" y="-843.7" font-family="Helvetica,sans-Serif" font-size="14.00">/tasks/{id}</text>
</g>
<!-- a2&#45;&gt;a3 -->
<g id="edge3" class="edge">
<title>a2&#45;&gt;a3</title>
<path fill="none" stroke="black" d="M117,-911.83C117,-904.55 117,-895.98 117,-887.83"/>
<polygon fill="black" stroke="black" points="120.5,-887.93 117,-877.93 113.5,-887.93 120.5,-887.93"/>
</g>
<!-- a4 -->
<g id="node5" class="node">
<title>a4</title>
<path fill="#e8f5e9" stroke="black" d="M183.88,-802C183.88,-802 50.13,-802 50.13,-802 44.13,-802 38.12,-796 38.12,-790 38.12,-790 38.12,-776 38.12,-776 38.12,-770 44.12,-764 50.12,-764 50.12,-764 183.88,-764 183.88,-764 189.88,-764 195.88,-770 195.88,-776 195.88,-776 195.88,-790 195.88,-790 195.88,-796 189.88,-802 183.88,-802"/>
<text xml:space="preserve" text-anchor="middle" x="117" y="-784.7" font-family="Helvetica,sans-Serif" font-size="14.00">404 via HTTPException</text>
<text xml:space="preserve" text-anchor="middle" x="117" y="-769.7" font-family="Helvetica,sans-Serif" font-size="14.00">+ automatic 422</text>
</g>
<!-- a3&#45;&gt;a4 -->
<g id="edge4" class="edge">
<title>a3&#45;&gt;a4</title>
<path fill="none" stroke="black" d="M117,-837.83C117,-830.55 117,-821.98 117,-813.83"/>
<polygon fill="black" stroke="black" points="120.5,-813.93 117,-803.93 113.5,-813.93 120.5,-813.93"/>
</g>
<!-- a5 -->
<g id="node6" class="node">
<title>a5</title>
<path fill="#e8f5e9" stroke="black" d="M171.5,-728C171.5,-728 62.5,-728 62.5,-728 56.5,-728 50.5,-722 50.5,-716 50.5,-716 50.5,-704 50.5,-704 50.5,-698 56.5,-692 62.5,-692 62.5,-692 171.5,-692 171.5,-692 177.5,-692 183.5,-698 183.5,-704 183.5,-704 183.5,-716 183.5,-716 183.5,-722 177.5,-728 171.5,-728"/>
<text xml:space="preserve" text-anchor="middle" x="117" y="-704.2" font-family="Helvetica,sans-Serif" font-size="14.00">Query&#45;param filters</text>
</g>
<!-- a4&#45;&gt;a5 -->
<g id="edge5" class="edge">
<title>a4&#45;&gt;a5</title>
<path fill="none" stroke="black" d="M117,-763.72C117,-756.43 117,-747.86 117,-739.78"/>
<polygon fill="black" stroke="black" points="120.5,-740 117,-730 113.5,-740 120.5,-740"/>
</g>
<!-- a6 -->
<g id="node7" class="node">
<title>a6</title>
<path fill="#e8f5e9" stroke="black" d="M173.75,-656C173.75,-656 60.25,-656 60.25,-656 54.25,-656 48.25,-650 48.25,-644 48.25,-644 48.25,-632 48.25,-632 48.25,-626 54.25,-620 60.25,-620 60.25,-620 173.75,-620 173.75,-620 179.75,-620 185.75,-626 185.75,-632 185.75,-632 185.75,-644 185.75,-644 185.75,-650 179.75,-656 173.75,-656"/>
<text xml:space="preserve" text-anchor="middle" x="117" y="-632.2" font-family="Helvetica,sans-Serif" font-size="14.00">Partial update + 204</text>
</g>
<!-- a5&#45;&gt;a6 -->
<g id="edge6" class="edge">
<title>a5&#45;&gt;a6</title>
<path fill="none" stroke="black" d="M117,-691.7C117,-684.41 117,-675.73 117,-667.54"/>
<polygon fill="black" stroke="black" points="120.5,-667.62 117,-657.62 113.5,-667.62 120.5,-667.62"/>
</g>
<!-- a7 -->
<g id="node8" class="node">
<title>a7</title>
<path fill="#e8f5e9" stroke="black" d="M173.38,-584C173.38,-584 60.62,-584 60.62,-584 54.62,-584 48.62,-578 48.62,-572 48.62,-572 48.62,-560 48.62,-560 48.62,-554 54.62,-548 60.62,-548 60.62,-548 173.38,-548 173.38,-548 179.38,-548 185.38,-554 185.38,-560 185.38,-560 185.38,-572 185.38,-572 185.38,-578 179.38,-584 173.38,-584"/>
<text xml:space="preserve" text-anchor="middle" x="117" y="-560.2" font-family="Helvetica,sans-Serif" font-size="14.00">Auto Swagger /docs</text>
</g>
<!-- a6&#45;&gt;a7 -->
<g id="edge7" class="edge">
<title>a6&#45;&gt;a7</title>
<path fill="none" stroke="black" d="M117,-619.7C117,-612.41 117,-603.73 117,-595.54"/>
<polygon fill="black" stroke="black" points="120.5,-595.62 117,-585.62 113.5,-595.62 120.5,-595.62"/>
</g>
<!-- b1 -->
<g id="node9" class="node">
<title>b1</title>
<path fill="#e3f2fd" stroke="black" d="M174.5,-501C174.5,-501 59.5,-501 59.5,-501 53.5,-501 47.5,-495 47.5,-489 47.5,-489 47.5,-475 47.5,-475 47.5,-469 53.5,-463 59.5,-463 59.5,-463 174.5,-463 174.5,-463 180.5,-463 186.5,-469 186.5,-475 186.5,-475 186.5,-489 186.5,-489 186.5,-495 180.5,-501 174.5,-501"/>
<text xml:space="preserve" text-anchor="middle" x="117" y="-483.7" font-family="Helvetica,sans-Serif" font-size="14.00">Engine + Task table</text>
<text xml:space="preserve" text-anchor="middle" x="117" y="-468.7" font-family="Helvetica,sans-Serif" font-size="14.00">(tasks.db on startup)</text>
</g>
<!-- a7&#45;&gt;b1 -->
<g id="edge8" class="edge">
<title>a7&#45;&gt;b1</title>
<path fill="none" stroke="black" d="M117,-547.61C117,-537.38 117,-524.19 117,-512.39"/>
<polygon fill="black" stroke="black" points="120.5,-512.73 117,-502.73 113.5,-512.73 120.5,-512.73"/>
</g>
<!-- b2 -->
<g id="node10" class="node">
<title>b2</title>
<path fill="#e3f2fd" stroke="black" d="M180.5,-427C180.5,-427 53.5,-427 53.5,-427 47.5,-427 41.5,-421 41.5,-415 41.5,-415 41.5,-401 41.5,-401 41.5,-395 47.5,-389 53.5,-389 53.5,-389 180.5,-389 180.5,-389 186.5,-389 192.5,-395 192.5,-401 192.5,-401 192.5,-415 192.5,-415 192.5,-421 186.5,-427 180.5,-427"/>
<text xml:space="preserve" text-anchor="middle" x="117" y="-409.7" font-family="Helvetica,sans-Serif" font-size="14.00">Dependency injection</text>
<text xml:space="preserve" text-anchor="middle" x="117" y="-394.7" font-family="Helvetica,sans-Serif" font-size="14.00">Depends(get_session)</text>
</g>
<!-- b1&#45;&gt;b2 -->
<g id="edge9" class="edge">
<title>b1&#45;&gt;b2</title>
<path fill="none" stroke="black" d="M117,-462.83C117,-455.55 117,-446.98 117,-438.83"/>
<polygon fill="black" stroke="black" points="120.5,-438.93 117,-428.93 113.5,-438.93 120.5,-438.93"/>
</g>
<!-- b3 -->
<g id="node11" class="node">
<title>b3</title>
<path fill="#e3f2fd" stroke="black" d="M183.12,-353C183.12,-353 50.88,-353 50.88,-353 44.88,-353 38.88,-347 38.88,-341 38.88,-341 38.88,-329 38.88,-329 38.88,-323 44.88,-317 50.88,-317 50.88,-317 183.12,-317 183.12,-317 189.12,-317 195.12,-323 195.12,-329 195.12,-329 195.12,-341 195.12,-341 195.12,-347 189.12,-353 183.12,-353"/>
<text xml:space="preserve" text-anchor="middle" x="117" y="-330.7" font-family="Helvetica,sans-Serif" font-size="14.00">Session CRUD → SQL</text>
</g>
<!-- b2&#45;&gt;b3 -->
<g id="edge10" class="edge">
<title>b2&#45;&gt;b3</title>
<path fill="none" stroke="black" d="M117,-388.72C117,-381.43 117,-372.86 117,-364.78"/>
<polygon fill="black" stroke="black" points="120.5,-365 117,-355 113.5,-365 120.5,-365"/>
</g>
<!-- b4 -->
<g id="node12" class="node">
<title>b4</title>
<path fill="#e3f2fd" stroke="black" d="M169.25,-281C169.25,-281 64.75,-281 64.75,-281 58.75,-281 52.75,-275 52.75,-269 52.75,-269 52.75,-255 52.75,-255 52.75,-249 58.75,-243 64.75,-243 64.75,-243 169.25,-243 169.25,-243 175.25,-243 181.25,-249 181.25,-255 181.25,-255 181.25,-269 181.25,-269 181.25,-275 175.25,-281 169.25,-281"/>
<text xml:space="preserve" text-anchor="middle" x="117" y="-263.7" font-family="Helvetica,sans-Serif" font-size="14.00">Persistence</text>
<text xml:space="preserve" text-anchor="middle" x="117" y="-248.7" font-family="Helvetica,sans-Serif" font-size="14.00">(restart&#45;proof data)</text>
</g>
<!-- b3&#45;&gt;b4 -->
<g id="edge11" class="edge">
<title>b3&#45;&gt;b4</title>
<path fill="none" stroke="black" d="M117,-316.81C117,-309.59 117,-300.97 117,-292.77"/>
<polygon fill="black" stroke="black" points="120.5,-292.78 117,-282.78 113.5,-292.78 120.5,-292.78"/>
</g>
<!-- c1 -->
<g id="node13" class="node">
<title>c1</title>
<path fill="#f3e5f5" stroke="black" d="M201.5,-196C201.5,-196 32.5,-196 32.5,-196 26.5,-196 20.5,-190 20.5,-184 20.5,-184 20.5,-172 20.5,-172 20.5,-166 26.5,-160 32.5,-160 32.5,-160 201.5,-160 201.5,-160 207.5,-160 213.5,-166 213.5,-172 213.5,-172 213.5,-184 213.5,-184 213.5,-190 207.5,-196 201.5,-196"/>
<text xml:space="preserve" text-anchor="middle" x="117" y="-172.2" font-family="Helvetica,sans-Serif" font-size="14.00">Modularize into app/ package</text>
</g>
<!-- b4&#45;&gt;c1 -->
<g id="edge12" class="edge">
<title>b4&#45;&gt;c1</title>
<path fill="none" stroke="black" d="M117,-242.8C117,-232.51 117,-219.4 117,-207.74"/>
<polygon fill="black" stroke="black" points="120.5,-207.82 117,-197.82 113.5,-207.82 120.5,-207.82"/>
</g>
<!-- c2 -->
<g id="node14" class="node">
<title>c2</title>
<path fill="#f3e5f5" stroke="black" d="M185,-124C185,-124 49,-124 49,-124 43,-124 37,-118 37,-112 37,-112 37,-100 37,-100 37,-94 43,-88 49,-88 49,-88 185,-88 185,-88 191,-88 197,-94 197,-100 197,-100 197,-112 197,-112 197,-118 191,-124 185,-124"/>
<text xml:space="preserve" text-anchor="middle" x="117" y="-101.7" font-family="Helvetica,sans-Serif" font-size="14.00">Gradio UI (httpx → API)</text>
</g>
<!-- c1&#45;&gt;c2 -->
<g id="edge13" class="edge">
<title>c1&#45;&gt;c2</title>
<path fill="none" stroke="black" d="M117,-159.7C117,-152.41 117,-143.73 117,-135.54"/>
<polygon fill="black" stroke="black" points="120.5,-135.62 117,-125.62 113.5,-135.62 120.5,-135.62"/>
</g>
<!-- c3 -->
<g id="node15" class="node">
<title>c3</title>
<path fill="#f3e5f5" stroke="black" d="M205.62,-52C205.62,-52 28.37,-52 28.37,-52 22.38,-52 16.38,-46 16.38,-40 16.38,-40 16.38,-28 16.38,-28 16.38,-22 22.38,-16 28.38,-16 28.38,-16 205.62,-16 205.62,-16 211.62,-16 217.62,-22 217.62,-28 217.62,-28 217.62,-40 217.62,-40 217.62,-46 211.62,-52 205.62,-52"/>
<text xml:space="preserve" text-anchor="middle" x="117" y="-28.2" font-family="Helvetica,sans-Serif" font-size="14.00">Diagrams + one&#45;command run</text>
</g>
<!-- c2&#45;&gt;c3 -->
<g id="edge14" class="edge">
<title>c2&#45;&gt;c3</title>
<path fill="none" stroke="black" d="M117,-87.7C117,-80.41 117,-71.73 117,-63.54"/>
<polygon fill="black" stroke="black" points="120.5,-63.62 117,-53.62 113.5,-63.62 120.5,-63.62"/>
</g>
</g>
</svg>
